<svg xmlns="http://www.w3.org/2000/svg" viewBox="0 0 566.93 566.93"><defs><style>.cls-1{isolation:isolate;}.cls-2{fill:#d6d6d6;}.cls-3,.cls-8{fill:#fafafa;}.cls-3{stroke:#fafafa;stroke-width:20px;}.cls-22,.cls-26,.cls-3{stroke-miterlimit:10;}.cls-4{fill:#e7e7e7;}.cls-14,.cls-20,.cls-21,.cls-22,.cls-26,.cls-5,.cls-9{fill:none;stroke-linecap:round;}.cls-14,.cls-20,.cls-21,.cls-5{stroke:#2d1f04;}.cls-14,.cls-20,.cls-21,.cls-5,.cls-9{stroke-linejoin:round;}.cls-5{stroke-width:2.82px;}.cls-6{fill:#d2d2d2;}.cls-7{fill:#222;}.cls-9{stroke:#d2d2d2;stroke-width:1.63px;}.cls-10{fill:#f0f0f0;}.cls-11{fill:#caa77a;}.cls-12{fill:#3f2719;}.cls-12,.cls-26{mix-blend-mode:multiply;opacity:0.23;}.cls-13{fill:#ffdbaf;}.cls-14{stroke-width:2.62px;}.cls-15{fill:#9d7b51;}.cls-16{fill:#b2b2b2;opacity:0.83;}.cls-17{fill:#251707;}.cls-18{fill:#fff;}.cls-19{fill:#2d1f04;}.cls-20{stroke-width:2.6px;}.cls-21{stroke-width:7.6px;}.cls-22{stroke:#251707;stroke-width:3px;}.cls-23{fill:#91d6e2;}.cls-24{fill:#ffdb1f;}.cls-25{fill:#b6b1ae;}.cls-26{stroke:#3f2719;stroke-width:4px;}</style></defs><g class="cls-1"><g id="Layer_2" data-name="Layer 2"><rect id="bg" class="cls-2" x="-0.01" y="0.54" width="566.94" height="566.94"/><path id="white_bg" class="cls-3" d="M473.16,399.39a273.84,273.84,0,0,0-5.43-40.17c.44-9,.52-18.92.29-29.86h.15c10.19-2.22,3.82-56.89-29.13-69.67-3.29-24.63-11.6-70.44-29.84-95.23A83.57,83.57,0,0,0,393.15,148c-19.62-17.82-39.32-21-56.73-25.63-6.88-1.41-12.55-2.77-18.33-9.87,0,0-3.14,0-5.89,6.16a34.75,34.75,0,0,1-20-8.51c-1.1-.08-1.33.42-1.49.86-.69,2.1,4.32,14.31,5.83,16.27l0,0s-1.16-2.66-22.07-1.1c-.44,0-.71,1.22-.35,1.46a10.83,10.83,0,0,0,1.31.68c2.6,1.55,8.7,3.66,10.21,7.51a2.53,2.53,0,0,1-.14.29s-7.4-2.23-19.25,2.57a39.69,39.69,0,0,0-4.15,1.68,1,1,0,0,0,.26,1.83c2.36.38,7,.31,10.39.68,1.92.51,3.12,1.19,2.54,2.15,0,0-6.08,2.25-20.64,12.53a1.18,1.18,0,0,0,.74,2.08,20.9,20.9,0,0,0,3.11-1c10.9-3.68,10.79-1.53,10.79-1.53s-7.08,7.21-11.14,20.19L96.83,198.19A13.16,13.16,0,0,0,85.61,211L89.8,363.9c.16,2,.7,4,2.27,5l96,61.31a16.93,16.93,0,0,0,13,1.51L240.46,418c.06,5,.28,10.47.64,16.4,27.08,8.17,46.33,17.46,108.86,19.23C399.27,455,435,450.2,456.74,439.92a54,54,0,0,0,16.07-11.05C474.47,420.7,474.59,412.44,473.16,399.39Z"/><g id="sticker"><g id="pc"><path class="cls-4" d="M283.64,316.4l-190,41.93c-3.94.83-4.38,7.84-1,10l96,61.31a17,17,0,0,0,13,1.51l192-67.17c3.8-1.33,3.87-3.68.17-5.25l-86.42-36.59C303.65,320.58,287.57,315.57,283.64,316.4Z"/><path class="cls-5" d="M283.64,316.4l-190,41.93c-3.94.83-4.38,7.84-1,10l96,61.31a17,17,0,0,0,13,1.51l192-67.17c3.8-1.33,3.87-3.68.17-5.25l-86.42-36.59C303.65,320.58,287.57,315.57,283.64,316.4Z"/><path class="cls-6" d="M280.78,315.92l-190,41.93c-3.94.83-.15,5.17,3.24,7.34l98.07,61.73c3.39,2.17,9.58.51,13.38-.82l183.84-63.92c3.8-1.33,5.61-1.16,1.91-2.73l-80.52-35.09-6.16-2.69C300.79,320.1,284.72,315.09,280.78,315.92Z"/><path class="cls-6" d="M298.59,172.09,97.37,197.59a13.18,13.18,0,0,0-11.23,12.77l4.13,153,208.34-45.59L309.11,182C309.51,175.74,304.8,171.31,298.59,172.09Z"/><path class="cls-5" d="M298.59,172.09,97.37,197.59a13.18,13.18,0,0,0-11.23,12.77l4.13,153,208.34-45.59L309.11,182C309.51,175.74,304.8,171.31,298.59,172.09Z"/><path class="cls-7" d="M297.49,171.77,100.71,197.26a13.09,13.09,0,0,0-11,12.77L94.24,361.8l202.67-46.21,10.87-133.93C308.17,175.41,303.57,171,297.49,171.77Z"/><path class="cls-5" d="M297.49,171.77,100.71,197.26a13.09,13.09,0,0,0-11,12.77L94.24,361.8l202.67-46.21,10.87-133.93C308.17,175.41,303.57,171,297.49,171.77Z"/><polygon class="cls-8" points="304.43 183.06 101.52 211.09 101.43 351.03 279.95 313.72 296.15 310.33 304.43 183.06"/><polygon class="cls-5" points="304.43 183.06 101.52 211.09 101.43 351.03 279.95 313.72 296.15 310.33 304.43 183.06"/><polygon class="cls-7" points="299.72 323.89 112.2 366.26 161.7 396.05 346.29 343.19 299.72 323.89"/><line class="cls-9" x1="339.38" y1="339.15" x2="142.84" y2="392.61"/><line class="cls-9" x1="327.58" y1="334.02" x2="133.09" y2="386.95"/><line class="cls-9" x1="318.62" y1="328.77" x2="124.92" y2="379.09"/><polyline class="cls-9" points="307.62 325.31 125.54 369.21 116.83 371.31 113.28 372.17"/><line class="cls-9" x1="178.2" y1="396.14" x2="124.45" y2="361.43"/><line class="cls-9" x1="192.61" y1="392.19" x2="140.97" y2="357.94"/><line class="cls-9" x1="208.39" y1="387.15" x2="155.41" y2="353.09"/><line class="cls-9" x1="221.27" y1="382.08" x2="169.64" y2="350.16"/><line class="cls-9" x1="223.6" y1="370.56" x2="184.18" y2="346"/><polyline class="cls-9" points="237.11 366.48 213.12 351.9 199.17 343.43"/><line class="cls-9" x1="250.6" y1="363.09" x2="216.23" y2="340.8"/><line class="cls-9" x1="266.64" y1="358.92" x2="231.43" y2="336.84"/><path class="cls-9" d="M282.05,354.84S245.45,333.5,245,334.13"/><polyline class="cls-9" points="316.74 361.48 311.19 358.35 258.73 331.01"/><line class="cls-9" x1="332.77" y1="359.91" x2="271.02" y2="327.05"/><line class="cls-9" x1="352.76" y1="357.4" x2="283.72" y2="324.34"/><path class="cls-10" d="M289,362.67l-64.8,18.61c-1.31.37-1.39,1.18-.18,1.8l33.52,17.17a6.76,6.76,0,0,0,4.54.34l65.35-22c1.29-.44,1.32-1.21.06-1.73l-33.84-14A8.19,8.19,0,0,0,289,362.67Z"/><path d="M128.79,266a10.18,10.18,0,0,1-1.21,5.31,4.68,4.68,0,0,1-3.52,2.23,7,7,0,0,1-1.59,0,8.13,8.13,0,0,1-1.66-.33v-2.46a8.19,8.19,0,0,0,1.78.68,4.18,4.18,0,0,0,1.47.1,2.83,2.83,0,0,0,2.18-1.39,7.25,7.25,0,0,0,.69-3.56v-.11c0-.68,0-1,0-1.69a4.9,4.9,0,0,1-1.21,2.05,3.29,3.29,0,0,1-1.86.87,3,3,0,0,1-3.14-1.71,10.88,10.88,0,0,1-1.17-5.53,12.73,12.73,0,0,1,1.18-5.85,4.16,4.16,0,0,1,3.17-2.52,2.68,2.68,0,0,1,1.85.35,3.36,3.36,0,0,1,1.22,1.64c0-.78,0-1.17,0-2l1.86-.23ZM127,259.55a9.66,9.66,0,0,0-.66-4.16,1.86,1.86,0,0,0-2-1.21,2.66,2.66,0,0,0-2.08,1.72,10.7,10.7,0,0,0-.73,4.35,9.31,9.31,0,0,0,.72,4.17,1.9,1.9,0,0,0,2.08,1.19,2.53,2.53,0,0,0,2-1.72A11.43,11.43,0,0,0,127,259.55Z"/><path d="M133.37,251.32l4.76-.6c0,5.25-.07,7.87-.11,13.11l3.66-.48c0,.76,0,1.15,0,1.91l-9.17,1.22c0-.76,0-1.15,0-1.92l3.67-.48c0-4.48.05-6.72.09-11.2l-2.9.36C133.37,252.47,133.37,252.09,133.37,251.32Zm2.95-6.22,1.86-.23c0,1.26,0,1.88,0,3.13l-1.86.23C136.3,247,136.31,246.35,136.32,245.1Z"/><path d="M149.5,245.08c0,1.69,0,2.54-.06,4.24l4.22-.53c0,.76,0,1.14,0,1.9l-4.21.53c0,3.25-.07,4.87-.12,8.11a3.82,3.82,0,0,0,.45,2.25,1.65,1.65,0,0,0,1.63.43l2.08-.27c0,.78,0,1.17,0,1.95l-2.25.3a3.08,3.08,0,0,1-2.92-.71c-.56-.67-.83-1.9-.8-3.71l.1-8.11-3,.38c0-.77,0-1.15,0-1.92l3-.37c0-1.7,0-2.55.06-4.25Z"/><path d="M178.68,252c-.09,3.36-.13,5-.22,8.39l-1.86.25c0-.88,0-1.31.06-2.19a5.79,5.79,0,0,1-1.54,2.14,4.36,4.36,0,0,1-2.2.92,2.86,2.86,0,0,1-2.71-.91,4.63,4.63,0,0,1-1-3.27,5.32,5.32,0,0,1,5.09-5.67l2.49-.31v-.38a3.51,3.51,0,0,0-.62-2.47,2.37,2.37,0,0,0-2.14-.53,6.13,6.13,0,0,0-1.93.6,9.11,9.11,0,0,0-1.91,1.28c0-1,0-1.46.06-2.43a12.55,12.55,0,0,1,2-1,7.83,7.83,0,0,1,1.84-.48,4.57,4.57,0,0,1,2.39.24,3.29,3.29,0,0,1,1.56,1.42,4,4,0,0,1,.51,1.55A19.31,19.31,0,0,1,178.68,252Zm-3.62,1.46-.62.08a4,4,0,0,0-2.45,1.06,3.32,3.32,0,0,0-.88,2.33,2.75,2.75,0,0,0,.57,2,1.81,1.81,0,0,0,1.68.52,3.29,3.29,0,0,0,2.43-1.71,8,8,0,0,0,1-3.94c0-.22,0-.33,0-.54Z"/><path d="M189.21,246.23c.1-3,.14-4.54.24-7.56l1.86-.22-.65,20.28-1.85.25c0-.74,0-1.11.06-1.84a4.87,4.87,0,0,1-1.28,1.81,3.37,3.37,0,0,1-1.79.81,3,3,0,0,1-3.15-1.64,10.55,10.55,0,0,1-1-5.54,12.49,12.49,0,0,1,1.34-5.76,4.36,4.36,0,0,1,3.28-2.44,2.64,2.64,0,0,1,1.78.35A2.92,2.92,0,0,1,189.21,246.23Zm-5.62,6.15a9.6,9.6,0,0,0,.56,4.14,1.8,1.8,0,0,0,2,1.16,2.7,2.7,0,0,0,2.08-1.7,10.79,10.79,0,0,0,.83-4.3,9.11,9.11,0,0,0-.57-4.12,1.84,1.84,0,0,0-2-1.17,2.66,2.66,0,0,0-2.07,1.68A11.17,11.17,0,0,0,183.59,252.38Z"/><path d="M201.66,244.67c.11-3,.17-4.51.28-7.51l1.86-.22c-.31,8.05-.46,12.08-.77,20.14l-1.84.25c0-.73,0-1.1.07-1.83a5,5,0,0,1-1.29,1.8,3.44,3.44,0,0,1-1.8.81,2.94,2.94,0,0,1-3.13-1.62,10.38,10.38,0,0,1-1-5.51,12.21,12.21,0,0,1,1.37-5.72,4.37,4.37,0,0,1,3.29-2.42,2.65,2.65,0,0,1,1.78.34A3,3,0,0,1,201.66,244.67ZM196,250.78a9.35,9.35,0,0,0,.54,4.11,1.77,1.77,0,0,0,2,1.15,2.7,2.7,0,0,0,2.08-1.69,10.75,10.75,0,0,0,.86-4.27,9,9,0,0,0-.55-4.09,1.81,1.81,0,0,0-2-1.16,2.66,2.66,0,0,0-2.08,1.67A11,11,0,0,0,196,250.78Z"/><path d="M129.81,288a3.36,3.36,0,0,0-1.19-.72,2.92,2.92,0,0,0-1.33-.09,3.45,3.45,0,0,0-2.62,1.83,8.92,8.92,0,0,0-.92,4.36c0,3,0,4.51,0,7.52l-1.83.28c0-6.06,0-9.09,0-15.15l1.84-.27v3a6.18,6.18,0,0,1,1.41-2.67,3.87,3.87,0,0,1,2.26-1.18,3.29,3.29,0,0,1,1.26.05,3.08,3.08,0,0,1,1.12.55C129.82,286.44,129.82,287,129.81,288Z"/><path d="M141.61,290c0,.48,0,.72,0,1.2l-7.91,1.18v.08a5.75,5.75,0,0,0,.92,3.66,2.6,2.6,0,0,0,2.65.94,5.77,5.77,0,0,0,1.83-.65,12.41,12.41,0,0,0,2-1.45l0,2.45a12.27,12.27,0,0,1-2,1.17,7.09,7.09,0,0,1-1.86.58,4,4,0,0,1-4-1.49,9,9,0,0,1-1.43-5.59,11.46,11.46,0,0,1,1.47-6,5.31,5.31,0,0,1,3.84-2.71,3.23,3.23,0,0,1,3.34,1.46A8.9,8.9,0,0,1,141.61,290Zm-1.82-.46a5.89,5.89,0,0,0-.73-3.19,2,2,0,0,0-2.07-.83,3.11,3.11,0,0,0-2.18,1.5,7.1,7.1,0,0,0-1,3.43Z"/><path d="M149.59,283.52a4.14,4.14,0,0,1,.88-1.54,2.18,2.18,0,0,1,1.27-.64,1.61,1.61,0,0,1,1.88,1.11,15.73,15.73,0,0,1,.47,5.16c-.06,3.45-.09,5.18-.14,8.63l-1.66.25c.05-3.41.07-5.12.13-8.53a15.9,15.9,0,0,0-.21-3.88.81.81,0,0,0-1-.63,1.34,1.34,0,0,0-1.1,1,15.92,15.92,0,0,0-.35,3.91l-.12,8.55-1.66.25c.05-3.42.07-5.13.11-8.55a15.07,15.07,0,0,0-.23-3.91.84.84,0,0,0-1-.59,1.28,1.28,0,0,0-1,1,17,17,0,0,0-.33,3.92l-.1,8.57-1.65.25c.06-6,.1-9,.17-15l1.66-.23c0,.51,0,.76,0,1.28a4,4,0,0,1,.84-1.34,2,2,0,0,1,1.13-.58,1.55,1.55,0,0,1,1.25.28A2.47,2.47,0,0,1,149.59,283.52Z"/><path d="M161.3,280a3.3,3.3,0,0,1,3.51,1.49,10,10,0,0,1,1.11,5.59,12.55,12.55,0,0,1-1.34,6,4.84,4.84,0,0,1-3.58,2.53,3.23,3.23,0,0,1-3.48-1.46q-1.19-1.81-1.12-5.62a12.38,12.38,0,0,1,1.32-6A4.77,4.77,0,0,1,161.3,280Zm0,2.07a2.77,2.77,0,0,0-2.13,1.75,10.73,10.73,0,0,0-.79,4.39,9.12,9.12,0,0,0,.63,4.17,1.85,1.85,0,0,0,2.07,1.13,2.81,2.81,0,0,0,2.14-1.77,10.64,10.64,0,0,0,.8-4.37,9.09,9.09,0,0,0-.63-4.17A1.87,1.87,0,0,0,161.26,282Z"/><path d="M173.66,274.37l-.1,4.18,4.16-.6-.05,1.88-4.16.61-.2,8a3.63,3.63,0,0,0,.41,2.21,1.61,1.61,0,0,0,1.61.4l2-.31,0,1.93-2.23.34c-1.36.21-2.32,0-2.86-.65s-.79-1.86-.75-3.64c.08-3.2.11-4.81.19-8l-3,.43.05-1.88,3-.43.1-4.19Z"/><path d="M190.58,282.77c0,.47,0,.7,0,1.17l-7.91,1.18v.08a5.44,5.44,0,0,0,.84,3.56,2.56,2.56,0,0,0,2.62.9,5.79,5.79,0,0,0,1.84-.64A12.16,12.16,0,0,0,190,287.6c0,1,0,1.44-.07,2.39a13.86,13.86,0,0,1-2,1.15,7.66,7.66,0,0,1-1.88.56,3.86,3.86,0,0,1-4-1.43,8.43,8.43,0,0,1-1.3-5.43,11,11,0,0,1,1.59-5.82,5.46,5.46,0,0,1,3.88-2.64,3.15,3.15,0,0,1,3.3,1.41A8.32,8.32,0,0,1,190.58,282.77Zm-1.81-.43a5.41,5.41,0,0,0-.66-3.11,2,2,0,0,0-2-.8,3.23,3.23,0,0,0-2.21,1.47,7.13,7.13,0,0,0-1.11,3.34Z"/><path d="M210.43,272.9a3.23,3.23,0,0,1,3.47,1.43c.76,1.18,1.08,3,1,5.44a12.13,12.13,0,0,1-1.47,5.81,5,5,0,0,1-3.62,2.48,3.2,3.2,0,0,1-3.44-1.41q-1.14-1.75-1-5.47a12.07,12.07,0,0,1,1.45-5.82A4.88,4.88,0,0,1,210.43,272.9Zm-.09,2a2.85,2.85,0,0,0-2.16,1.71,10.53,10.53,0,0,0-.89,4.28,8.67,8.67,0,0,0,.55,4.05,1.81,1.81,0,0,0,2,1.1,2.92,2.92,0,0,0,2.17-1.74,10.66,10.66,0,0,0,.89-4.25,8.74,8.74,0,0,0-.53-4.06A1.84,1.84,0,0,0,210.34,274.91Z"/><path d="M227.91,273.65a3.07,3.07,0,0,0-1.15-.68,3,3,0,0,0-1.32-.07,3.68,3.68,0,0,0-2.68,1.76,8.28,8.28,0,0,0-1.09,4.13c-.14,2.85-.21,4.28-.34,7.13l-1.83.28c.26-5.74.4-8.62.67-14.36l1.84-.26c-.06,1.12-.08,1.68-.14,2.8a6.09,6.09,0,0,1,1.53-2.54,4.1,4.1,0,0,1,2.29-1.14,3.45,3.45,0,0,1,1.25,0,2.94,2.94,0,0,1,1.09.51C228,272.21,228,272.69,227.91,273.65Z"/><path d="M231.39,270.22l4.69-.67c-.27,5-.41,7.45-.68,12.41l3.62-.55-.1,1.81-9,1.39.1-1.82,3.61-.55c.23-4.24.34-6.37.57-10.61l-2.86.42Zm3.15-6,1.84-.26-.16,3-1.84.26C234.45,266.05,234.48,265.45,234.54,264.27Z"/><path d="M250.68,280.53a9.64,9.64,0,0,1-1.47,5,5.15,5.15,0,0,1-3.56,2.18,7.3,7.3,0,0,1-1.56.07,8.75,8.75,0,0,1-1.6-.26c0-.93.08-1.39.13-2.31a7.42,7.42,0,0,0,1.71.59,4.1,4.1,0,0,0,1.43,0,3.05,3.05,0,0,0,2.21-1.35,7,7,0,0,0,.87-3.35V281l.1-1.57a5,5,0,0,1-1.3,1.94,3.48,3.48,0,0,1-1.86.86,2.72,2.72,0,0,1-3-1.51,9.31,9.31,0,0,1-.86-5.14,12.11,12.11,0,0,1,1.47-5.5,4.53,4.53,0,0,1,3.24-2.43,2.67,2.67,0,0,1,1.79.28,2.88,2.88,0,0,1,1.11,1.5c0-.73.06-1.1.11-1.83l1.83-.26C251.17,272.64,251,275.27,250.68,280.53Zm-1.44-6a8.51,8.51,0,0,0-.43-3.87,1.66,1.66,0,0,0-1.87-1.07,2.85,2.85,0,0,0-2.13,1.66,9.81,9.81,0,0,0-.94,4.08,8,8,0,0,0,.48,3.88,1.74,1.74,0,0,0,2,1.06,2.76,2.76,0,0,0,2-1.67A10.61,10.61,0,0,0,249.24,274.54Z"/><path d="M256,266.69l4.69-.68c-.33,4.9-.49,7.35-.82,12.24l3.62-.55c-.05.72-.08,1.07-.12,1.79l-9,1.38c0-.72.07-1.07.12-1.79l3.61-.55c.28-4.19.41-6.28.69-10.46l-2.86.41C255.88,267.77,255.9,267.41,256,266.69Zm3.21-5.88,1.84-.26-.2,2.92-1.83.26C259.05,262.56,259.09,262,259.16,260.81Z"/><path d="M275.75,269.07c-.26,3.44-.39,5.17-.64,8.61l-1.83.28c.25-3.45.38-5.17.63-8.62a4.94,4.94,0,0,0-.33-2.68A1.41,1.41,0,0,0,272,266a2.87,2.87,0,0,0-2.06,1.43,7.42,7.42,0,0,0-.92,3.37c-.23,3.16-.34,4.74-.56,7.89l-1.82.28c.39-5.59.58-8.38,1-14l1.83-.27-.15,2.1a5.55,5.55,0,0,1,1.45-2,4,4,0,0,1,2-.9,2.2,2.2,0,0,1,2.44,1A7.48,7.48,0,0,1,275.75,269.07Z"/></g><g id="sloth"><path class="cls-11" d="M269.82,156.6s-14.78,15-13.88,40.78c1.05,30,9.47,40.44,18.39,56.29,5.14,9.15,8.11,19.28,7.93,26.09-.25,9.16-6.61,30.06,15.19,33.36s94.46-1,112.62-11.23,30.39-25.62,30.39-25.62-5.95-76.93-31.71-111.94c-24.41-33.17-49.91-36.74-71.79-42.52-10.28-2.11-16.89-6.11-18.66-10.2-2.93,7-2.15,5.12-2,8-7-.37-20.54-7.19-23.57-10.07a1.37,1.37,0,0,0-1.49.87c-.52,2.62-.61,2,5.85,16.3,0,0-1.16-2.65-22.07-1.1-.44,0-.71,1.22-.34,1.46C277,128.66,288.13,132,286,135.6c0,0-9.17-2.77-23.45,4.48a.42.42,0,0,0,.12.78c3.84.5,14.63,1.12,13.12,3.66,0,0-6.09,2.24-20.65,12.52-.93.66.29,2.27.68,2.13C269.9,154,269.82,156.6,269.82,156.6Z"/><path class="cls-12" d="M270,155.83c.24.28.51.61.3.92-2.47,3.69-6,5.68-10.23,16.91-1.58,4.22,16.77-33.82,67.42-33.82,72,0,72.74,34.86,81,62.27,8.81,29.21,4.92,77.9,3.74,96.37-.37,5.92,8.64-3.29,12.7-6.56A117.68,117.68,0,0,0,441.31,276a.48.48,0,0,0,.11-.38c-.36-4.49-6.72-77.8-31.68-111.73-21.56-29.3-56.46-35.89-76.29-42.8a20.1,20.1,0,0,1-14.82-9.13c-2.08,1.17-.7,6.24-2.56,8.3-15.44-2.31-21.49-9.94-24.48-10.32-1.06-.14,2.43,14,6.11,17.55a.57.57,0,0,1-.79.24c-1.69-1-4.49-2.7-21-2.1a1,1,0,0,0-.59,1.8c2.32,1.76,10.76,4.17,11.16,9.3-1.88-.08-11.89-2.55-23.88,3.14a1,1,0,0,0,.26,1.83c4.54.75,17.67-.23,13.63,3.58,0,0-8.06,1.88-21,12.63-.58.49-.07,1.52.65,1.25C264.91,155.74,268.8,154.45,270,155.83Z"/><path class="cls-13" d="M266.51,181C270,172.79,279.18,163,287.46,161c9.75-2.35,11.55-.55,21-1,1.74-.09,7-1.44,8.06-3.44s.24-4.9.28-4.89c1.49.56,6,3.19,7.83,3.87,7.08,2.66,8.73,3,15.12.51,21.34-8.42,39.61,5.32,46.84,14.92,3.85,5.11,13.13,19.61,13.44,35.31.31,16.25,3.37,24.1-15.32,40.95-22.2,20-75.93,30.48-106,.91C264.38,234,260.76,194.56,266.51,181Z"/><path class="cls-14" d="M270.31,156.26s-14.15,15.94-14.89,39.12c-1,32.3,10,42.44,18.91,58.29,5.14,9.15,8.11,19.28,7.93,26.09-.25,9.16-6.61,30.06,15.19,33.36s94.46-1,112.62-11.23,30.39-25.62,30.39-25.62-4-79-32-114.06c-24.74-31.07-44.71-31.48-80.38-42.59-8-2.49-9-6.48-9.74-7.64-1.67,2-2.28,5.81-1.53,7.53-.37.07-11.12,1.93-24.08-9.56-2.81-.75-.62,10.37,4.51,17.56,0,0-1.34-2.62-22.2-1.6a.45.45,0,0,0-.23.83c2.34,1.53,13.44,6.29,11.34,9.9,0,0-9.5-3.78-23.78,3.47a.41.41,0,0,0,.13.78c3.84.5,16.47,1.26,13.33,4.23,0,0-6.91,1.75-20.68,12.47-.52.41-.07,1.33.54,1.07C267.76,153.52,270.31,156.26,270.31,156.26Z"/><path class="cls-15" d="M321.79,212.21C313.94,208.6,305,222.9,304.66,233c-.76,20.68,29.78,25.73,46.91,15.4,17.85-10.77-3.69-42.43-17.33-37.41"/><path class="cls-15" d="M265.66,188.55c-8.07,13.84-.74,39.39,4.68,49.3a3.93,3.93,0,0,0,4.44,1.93,57.47,57.47,0,0,0,16.15-6.86c33-20.5,16.69-63.73,14.79-66-2.61-3.49-9.25,5.68-19.63,14.06C282.94,183.48,269.87,187.54,265.66,188.55Z"/><path class="cls-15" d="M340.51,169.63c.29,69.36,54.5,66.94,58.21,58,2.38-5.71,6.77-26.5-1.05-43.29C391.48,170.17,378.83,183,369,179,358.67,174.84,340.45,155.77,340.51,169.63Z"/><path class="cls-16" d="M366.76,186.86l.14,0c6.86-1,13.4,4.5,14.59,12.38s-3.4,15.11-10.26,16.15l-.14,0c-6.86,1-13.4-4.5-14.59-12.38S359.9,187.9,366.76,186.86Z"/><path class="cls-16" d="M288.12,188.45h.15c7.56,0,13.7,7,13.7,15.72s-6.14,15.72-13.7,15.72h-.15c-7.57,0-13.7-7-13.7-15.72S280.55,188.45,288.12,188.45Z"/><path class="cls-17" d="M315.38,213.84c-.14-2.71,5.19-5.18,11.9-5.51s12.26,1.6,12.4,4.32-5.2,5.19-11.91,5.51S315.51,216.56,315.38,213.84Z"/><path class="cls-18" d="M288.19,188.91h0a12.05,12.05,0,0,1,12.09,12v.78a12.09,12.09,0,0,1-24.17,0v-.78A12,12,0,0,1,288.19,188.91Z"/><path class="cls-18" d="M368.39,184.38h0a12,12,0,0,1,12.09,12v.79a12.09,12.09,0,0,1-24.17,0v-.79A12,12,0,0,1,368.39,184.38Z"/><path class="cls-19" d="M364.14,199.83a2.93,2.93,0,1,1,2.93,3A3,3,0,0,1,364.14,199.83Z"/><path class="cls-19" d="M283.94,204.17a2.93,2.93,0,1,1,2.93,3.06A3,3,0,0,1,283.94,204.17Z"/><path class="cls-20" d="M368.39,184.38h0a12,12,0,0,1,12.09,12v.79a12.09,12.09,0,0,1-24.17,0v-.79A12,12,0,0,1,368.39,184.38Z"/><path class="cls-20" d="M288.19,188.91h0a12.05,12.05,0,0,1,12.09,12v.78a12.09,12.09,0,0,1-24.17,0v-.78A12,12,0,0,1,288.19,188.91Z"/><path class="cls-21" d="M263.23,190.66c26.69-2.8,41.41-25.62,41.41-25.62"/><path class="cls-21" d="M393.9,179.49c-32.49,3.46-54.59-18.85-52.43-16.41"/><path class="cls-22" d="M313.09,221.5s14.09,13.12,32.62-3.15"/><path class="cls-23" d="M387.27,202.14c-.26-.32-.71-.06-.65.38a27.24,27.24,0,0,1-.92,10.93c-.71,2.45-2.69,8.55,2.05,9.71,6.59,1.62,7.95-5.67,6.64-10.1C392.68,207.32,388.93,204.18,387.27,202.14Z"/><path class="cls-11" d="M260,331.53s3.22,9.5-9.66,19.69c-7.95,6.29-24.73,15-35.14-6.94-11.31,6.82-21.66-2.08-21.66-2.08S182.7,341,179.87,341c-17.5,15.19-13.54,41.74-4.17,54.52,29.93,9.72,68.74,10.05,71.22,4.93-.47-32.78,27.24-64.73,27.24-64.73Z"/><path class="cls-24" d="M241.63,433.78C268.71,442,288,451.25,350.5,453c64.51,1.82,105.85-6.94,122.84-24.74,6.52-14.45-9.83-91.19-11.87-95.32a11.76,11.76,0,0,0,4.08-2.47c.68-40.87-11.89-69.65-38.66-73.82-20.63.79-28.73,12.12-37.26,23.66C364,300.6,286,293.52,280.87,279c0-1-.18-3-.26-4.11-23.94,6-25.33,50.23-24.17,54.55,2.45,3.35,11.67,4.82,11.67,4.82s3.24,1.07-.06,5.48C245,370.56,238.77,386.48,241.63,433.78Z"/><path class="cls-14" d="M473.49,427.24c3.7-38.4-11.08-89.67-11.6-91.53"/><path class="cls-12" d="M268.37,338.85s6.54,14.39,33.77,14.34c13,0,14.58.21,25.35-.56,9.76-.7,9.17,4.88,2.49,5.49-14,1.28-21.3-.91-21.3-.91s-23.51-3.74-34.52-2.32c-10.64,1.36-16.79,5.59-24.27,13.28C253,359.3,268.37,338.85,268.37,338.85Z"/><path class="cls-12" d="M462.22,335.21s15.06,44.84,11.25,92.88c-4,4.26-12,10-17.1,11.54,3.06-11.41-3.2-60.95-3.2-60.95Z"/><path class="cls-19" d="M290.37,327.86c8,.43,15.29.67,22.36,1.18,5.81.41,7.33,4.18,6.95,7.69-.51,4.83-3.62,8.06-9,9.64-.28.09-.57.14-1.15.27,5.45,3.18,5.38,9.32,8.79,15l-12.1-.46a101,101,0,0,1-4.93-10.68c-.75-1.89-1.81-3.3-4.95-2.85a44.84,44.84,0,0,0-1.4,13.2c-3.75-.13-7.17-.25-10.86-.36C283.43,349.44,288.15,338.5,290.37,327.86Zm9.5,7.13c-.54,2.15-1.1,4.12-1.78,6.5,2.38,0,4.65,0,6.94-.17a4,4,0,0,0,3.77-2.87c.47-1.64-.31-3-2.34-3.21S302.2,335.07,299.87,335Z"/><path class="cls-19" d="M351.76,339c-3.6.09-6.85.17-10.23.27-.06-2.73-1.55-4.24-4.37-4.38a4.19,4.19,0,0,0-4.39,2.25c-.2,1.57.85,2.13,2.14,2.5,2.35.67,4.78,1.28,7.18,2a28.83,28.83,0,0,1,3.9,1.51c8,3.72,5.95,12.95-.7,17.11a19.24,19.24,0,0,1-7.3,2.63A26.23,26.23,0,0,1,326.3,362a10,10,0,0,1-7.21-11.33l9.83-.18c.11.65.19,1.25.33,1.83.77,3.15,4.12,4.81,7.61,3.68a4,4,0,0,0,3-3,2.68,2.68,0,0,0-1.77-3c-1.09-.49-2.27-.83-3.41-1.21-2.37-.79-4.81-1.4-7-2.37-4.21-1.87-5.77-5-4.8-8.56a12,12,0,0,1,9.23-8.41,24.19,24.19,0,0,1,13.42.45C350.1,331.37,352,334.21,351.76,339Z"/><path class="cls-11" d="M395.21,336.19c14.53,61.69-5.78,76.25-38.06,71-23.52-3.83-22-41.63-22-41.63a60.35,60.35,0,0,0-16.89,38.59s-4.71,2.41-13-5.43c-9.69,15.85,3.53,35.63,11.78,41.23,24.33,16.51,68.19,16.68,106.75-.32,37.93-16.71,46.66-46.91,44.53-117.63"/><path class="cls-25" d="M210.1,304.14s1.51,37.33,5.14,40.14-21.09,6.91-22.16-3.66C193.41,326.91,210.1,304.14,210.1,304.14Z"/><path class="cls-25" d="M335.66,365.56s-1.47,24.5,11.11,36.59c3.32,3.18-26.39,10.2-27.46-.37C322.39,379,335.66,365.56,335.66,365.56Z"/><path class="cls-25" d="M227.62,373.88c-5.47,7.77-34.54,19.75-44.56,20.79-4-5.17-9.38-32.83,4.82-45.45C194.73,358.2,216.28,369.76,227.62,373.88Z"/><path class="cls-25" d="M304.61,399.23c6.47-4.79,12.58-1.33,13.81-2.06.47,4.24.15,6.48-.68,8.61C313.72,405.78,310.42,404,304.61,399.23Z"/><path class="cls-14" d="M391.14,278.9s-15.19,13-47.56,14.31-59.23-8.14-62.09-12.77-7.16,14.29.44,17.84c7.25,3.39,30.14,12.8,63.9,8.29"/><path class="cls-14" d="M281.87,274.45c-24.13,4.2-25.79,45.44-25.27,55.85.06,1.05,2.87,2.53,2.87,2.53s3,8.86-10.74,19.76-30,2.81-33-6.77-8.26-33.19-5.29-40.46-18,16-16.84,36.84l-13.86-2.49s-25.32,23.64-4,55.84c0,0,24.34,12.14,65.28,6.69"/><path class="cls-14" d="M241.45,432.85c-5.1-22.13,2-66.38,26.6-93.14,1.32-29.89,13.82-41.73,13.82-41.73"/><path class="cls-14" d="M179.87,341s29.89,30.55,45.58,31.21-42.19,26.63-49.75,23.31"/><path class="cls-14" d="M186.64,349.22s-15.19,22.19-3.4,45.83"/><path class="cls-14" d="M179.72,370.26c2.3,1.32,22.2,11.39,48.41,3.47"/><path class="cls-14" d="M193.54,341s0,10.51,22.17,4.79"/><path class="cls-14" d="M396.41,342.92c9.48,44.5,1.11,64.08-27.54,64.69-37.82.8-33-41.83-33-41.83a59.1,59.1,0,0,0-17.07,38.37s-5.2,2.28-13.45-5.56c-2.13,4.66-7,17.05,4.84,33.76,15.61,22,71.27,25.41,106.19,11,50-20.68,54-61.41,52.53-114"/><path class="cls-14" d="M306.23,397.89s4.85-3.56,12.14-1.33"/><path class="cls-14" d="M319.41,404.6c.33,0,12.9,8.7,27.62-2.06"/><path class="cls-24" d="M429.49,330.75c9.57-2.17,15.36-2.91,39.21-2,11.38-2.47,2.13-70.29-41.68-72.29-31.82,4.2-40,28.76-40.39,43.2-.26,9.55,5.69,41.89,5.69,41.89s.91,3.61,5.36,1.07C409,336.2,421.21,332.64,429.49,330.75Z"/><path class="cls-14" d="M468.88,329.27s3.63-1.77,3.74-3.71c.57-9.89.67-41.46-19.35-58.71-28.81-24.84-57.85.27-64.23,17.34-5.74,15.32,2.53,53.89,3,56.53s4.4,2.2,4.4,2.2"/><path class="cls-14" d="M403.21,327.48c-.41.24,25.32-14.46,69.55-10.72"/><path class="cls-14" d="M286.62,284a14.54,14.54,0,0,0,0,7.86"/><path class="cls-14" d="M292.27,286.57s-1,5,.66,9.13"/><path class="cls-14" d="M339.17,294a6.63,6.63,0,0,0,.55,4"/><path class="cls-14" d="M344.24,294a14.82,14.82,0,0,0,1.1,5.61"/><path class="cls-14" d="M316.93,292.4a21.22,21.22,0,0,0,.44,5.58"/><path class="cls-12" d="M427,256.48c19,7.43,23.91,26,26.14,32.86,3.64,11.08,10.19,37.05,3.58,77.6s-26.18,72.34-71.17,76.31c-22.46,2-69.58-.28-82.15-39.49-5.21,22.48,16.25,44.58,40.42,46.37,29.95,2.22,33.52,5.9,72.5-6.82,61.94-31.7,50.08-62.88,52-114.58C479.58,326.09,470.4,258.92,427,256.48Z"/><path class="cls-12" d="M197,390.53s30,3.21,45.87.49c-1.08,4-2,8-1.6,11-27.23,5.61-63.45-5.66-63.45-5.66Z"/><line class="cls-22" x1="324.94" y1="215.81" x2="326.5" y2="225.79"/><path class="cls-14" d="M423.65,320.91s2.09.71,1.61,6.22"/><path class="cls-14" d="M428.34,319.84s2.09.7,1.6,6.21"/><path class="cls-14" d="M446.78,316.73s2.09.71,1.6,6.21"/><line class="cls-26" x1="436.71" y1="355.92" x2="436.71" y2="366.99"/><line class="cls-26" x1="444.2" y1="359.22" x2="443.42" y2="370.26"/><line class="cls-26" x1="294.4" y1="268.7" x2="296.4" y2="277.7"/><line class="cls-26" x1="302.17" y1="270.97" x2="304.21" y2="280.14"/><line class="cls-26" x1="310.16" y1="273.15" x2="312.19" y2="282.24"/></g></g></g></g></svg>